<?xml version="1.0" encoding="UTF-8" standalone="no"?>
<!-- Created with Inkscape (http://www.inkscape.org/) -->

<svg
   width="48"
   height="48"
   viewBox="0 0 48 48"
   version="1.1"
   id="svg1"
   inkscape:version="1.3 (0e150ed6c4, 2023-07-21)"
   sodipodi:docname="icon-sm.svg"
   inkscape:export-filename="icon-sm.png"
   inkscape:export-xdpi="64"
   inkscape:export-ydpi="64"
   xmlns:inkscape="http://www.inkscape.org/namespaces/inkscape"
   xmlns:sodipodi="http://sodipodi.sourceforge.net/DTD/sodipodi-0.dtd"
   xmlns="http://www.w3.org/2000/svg"
   xmlns:svg="http://www.w3.org/2000/svg">
  <sodipodi:namedview
     id="namedview1"
     pagecolor="#505050"
     bordercolor="#eeeeee"
     borderopacity="1"
     inkscape:showpageshadow="0"
     inkscape:pageopacity="0"
     inkscape:pagecheckerboard="0"
     inkscape:deskcolor="#505050"
     inkscape:document-units="px"
     inkscape:zoom="11.13713"
     inkscape:cx="29.046981"
     inkscape:cy="19.259899"
     inkscape:window-width="2560"
     inkscape:window-height="1361"
     inkscape:window-x="-9"
     inkscape:window-y="-9"
     inkscape:window-maximized="1"
     inkscape:current-layer="layer1" />
  <defs
     id="defs1">
    <clipPath
       clipPathUnits="userSpaceOnUse"
       id="clipPath28">
      <path
         d="M 0,1190.551 H 841.89 V 0 H 0 Z"
         id="path28" />
    </clipPath>
    <clipPath
       clipPathUnits="userSpaceOnUse"
       id="clipPath30">
      <path
         d="M 0,1190.551 H 841.89 V 0 H 0 Z"
         transform="translate(-404.78221,-387.47851)"
         id="path30" />
    </clipPath>
    <clipPath
       clipPathUnits="userSpaceOnUse"
       id="clipPath30-7">
      <path
         d="M 0,1190.551 H 841.89 V 0 H 0 Z"
         transform="translate(-404.78221,-387.47851)"
         id="path30-7" />
    </clipPath>
    <clipPath
       clipPathUnits="userSpaceOnUse"
       id="clipPath30-4">
      <path
         d="M 0,1190.551 H 841.89 V 0 H 0 Z"
         transform="translate(-404.78221,-387.47851)"
         id="path30-0" />
    </clipPath>
  </defs>
  <g
     inkscape:label="Warstwa 1"
     inkscape:groupmode="layer"
     id="layer1">
    <path
       id="path27"
       d="m 353.842,397.581 h 61.092 v -61.1 h -61.092 z"
       style="fill:#b32428;fill-opacity:1;fill-rule:evenodd;stroke:#b32428;stroke-width:0.0971378;stroke-linecap:butt;stroke-linejoin:miter;stroke-miterlimit:22.926;stroke-dasharray:none;stroke-opacity:1"
       transform="matrix(0.78445296,0,0,-0.78445276,-277.5343,311.92161)"
       clip-path="url(#clipPath28)" />
    <path
       style="color:#000000;font-variation-settings:normal;opacity:1;vector-effect:none;fill:#fbc589;fill-opacity:1;stroke:none;stroke-width:0.352778;stroke-linecap:butt;stroke-linejoin:miter;stroke-miterlimit:4;stroke-dasharray:none;stroke-dashoffset:0;stroke-opacity:1;-inkscape-stroke:none;stop-color:#000000;stop-opacity:1"
       d="M 34.230551,13.934596 A 2.391363,2.391363 0 0 0 32.54165,14.63706 l -12.59202,12.588284 -4.147522,-4.14752 a 2.391363,2.391363 0 0 0 -3.381536,0 2.391363,2.391363 0 0 0 0,3.381536 l 5.840158,5.840156 a 2.3916022,2.3916022 0 0 0 3.381537,0 l 14.280919,-14.28092 a 2.391363,2.391363 0 0 0 0,-3.381536 2.391363,2.391363 0 0 0 -1.692635,-0.702464 z"
       id="path1" />
    <path
       style="color:#000000;font-variation-settings:normal;opacity:1;vector-effect:none;fill:#fbc589;fill-opacity:1;stroke:none;stroke-width:0.352778;stroke-linecap:butt;stroke-linejoin:miter;stroke-miterlimit:4;stroke-dasharray:none;stroke-dashoffset:0;stroke-opacity:1;-inkscape-stroke:none;stop-color:#000000;stop-opacity:1"
       d="M 7.7088407,4.6232271 A 2.3916022,2.3916022 0 0 0 5.3174776,7.0145902 V 39.600648 a 2.3916022,2.3916022 0 0 0 2.3913631,2.391363 H 40.291162 a 2.3916022,2.3916022 0 0 0 2.391363,-2.391363 V 7.0145902 A 2.3916022,2.3916022 0 0 0 40.291162,4.6232271 Z M 10.100204,9.4059532 H 37.899799 V 37.209285 H 10.100204 Z"
       id="rect3" />
  </g>
</svg>
